<svg width="1024" height="1024" viewBox="0 0 1024 1024" fill="none" xmlns="http://www.w3.org/2000/svg">
<rect width="1024" height="1024" fill="#F8F9FA"/>
<mask id="mask0_1_196" style="mask-type:alpha" maskUnits="userSpaceOnUse" x="64" y="84" width="897" height="856">
<path fill-rule="evenodd" clip-rule="evenodd" d="M484.395 444.981L478.367 446.79C476.795 447.261 475.287 447.925 473.877 448.764L454.777 460.143C453.266 461.044 451.88 462.14 450.655 463.403L437.644 476.82C436.884 477.604 436.219 478.475 435.664 479.415C432.356 485.013 425.6 487.555 419.423 485.527L403.027 480.143C398.797 478.754 395.151 475.993 392.668 472.298L377.003 448.993C376.336 447.999 375.759 446.948 375.279 445.852L359.117 408.91C358.706 407.971 358.368 407.002 358.106 406.012L345.434 358.138C345.145 357.048 344.949 355.935 344.848 354.813L340.66 308.275C340.554 307.094 340.552 305.906 340.657 304.724L344.831 257.416C344.943 256.142 345.178 254.881 345.531 253.651L357.5 212L373 174L390.5 142.5L405 120L423 97.4999L430.43 90.4075C432.775 88.1693 435.629 86.5346 438.745 85.6441L440.625 85.1072C443.183 84.3763 445.861 84.1631 448.502 84.4801L450.779 84.7533C454.829 85.2394 458.634 86.9524 461.683 89.6627L466 93.4999L476.5 105.5L487.093 117.788C488.358 119.255 489.829 120.53 491.46 121.574L496.571 124.845C499.79 126.905 503.531 128 507.352 128H518.228C522.311 128 526.297 126.75 529.649 124.418L533.756 121.561C535.245 120.525 536.586 119.291 537.743 117.894L548 105.5L555 97.4999L560.081 92.0562C561.354 90.692 562.812 89.5128 564.412 88.5527L566.037 87.5778C568.323 86.2064 570.859 85.3057 573.498 84.9287L575.326 84.6676C578.4 84.2285 581.555 84.518 584.5 85.4999C587.446 86.4817 590.143 88.1429 592.339 90.3384L603 101L619.994 120.826C620.664 121.607 621.272 122.439 621.814 123.315L634 143L644.5 161L655 182L666 208L675 240L677.053 251.634C678.447 259.533 673.691 267.221 666 269.5L635 281.5L604 297L577 314.5L552.5 334L533.912 351.228C532.643 352.404 531.531 353.741 530.606 355.203L517.641 375.696C516.883 376.895 516.254 378.172 515.765 379.504L505.5 407.5L498.5 428.5L498.288 429.602C496.882 436.915 491.528 442.841 484.395 444.981ZM587.33 479.402L583.747 474.227C582.813 472.878 581.717 471.649 580.482 470.568L563.758 455.918C562.434 454.759 560.964 453.78 559.384 453.005L542.603 444.778C541.623 444.297 540.589 443.934 539.523 443.696C533.177 442.28 528.672 436.64 528.692 430.138L528.745 412.882C528.759 408.429 530.258 404.109 533.005 400.605L550.33 378.505C551.068 377.564 551.889 376.69 552.783 375.895L582.923 349.109C583.689 348.428 584.506 347.807 585.367 347.251L626.982 320.405C627.929 319.794 628.927 319.264 629.964 318.821L672.929 300.457C674.019 299.991 675.149 299.622 676.305 299.357L722.587 288.707C723.835 288.421 725.106 288.254 726.385 288.21L769.696 286.722L810.626 289.721L845.992 296.63L871.872 303.468L898.833 313.634L907.874 318.509C910.727 320.047 913.164 322.256 914.974 324.945L916.065 326.566C917.551 328.773 918.581 331.254 919.096 333.864L919.539 336.114C920.329 340.116 919.875 344.264 918.24 348.002L915.925 353.293L907.757 366.987L899.344 380.859C898.339 382.515 897.581 384.308 897.092 386.183L895.56 392.054C894.596 395.752 894.711 399.648 895.892 403.282L899.252 413.626C900.514 417.509 902.935 420.914 906.188 423.381L910.175 426.404C911.62 427.5 913.208 428.395 914.894 429.063L929.851 434.988L939.623 439.173L946.37 442.323C948.061 443.113 949.633 444.135 951.041 445.36L952.47 446.604C954.481 448.354 956.121 450.488 957.295 452.881L958.108 454.539C959.476 457.327 960.175 460.416 960.152 463.521C960.128 466.626 959.382 469.705 957.972 472.471L951.127 485.906L937.523 508.194C936.987 509.073 936.383 509.909 935.718 510.694L920.762 528.367L906.888 543.915L890.16 560.391L868.832 578.887L841.179 597.335L830.749 602.883C823.667 606.65 814.886 604.502 810.342 597.891L789.35 572.117L765.029 547.424L740.042 527.153L713.926 509.878L691.797 497.524C690.286 496.68 688.671 496.036 686.994 495.608L663.498 489.61C662.123 489.259 660.715 489.056 659.297 489.003L629.499 487.891L607.364 487.723L606.25 487.862C598.86 488.785 591.57 485.524 587.33 479.402ZM589.531 583.184L585.717 588.191C581.204 594.115 580.356 602.056 583.517 608.799L583.993 609.815L590.674 630.919L598.824 659.602C599.212 660.967 599.454 662.369 599.545 663.785L601.102 687.985C601.213 689.712 601.099 691.447 600.764 693.145L595.852 718.008L587.493 748.185L575.936 778.213L559.967 808.974L541.941 836.903C537.058 843.267 537.729 852.282 543.5 857.854L551.999 866.059L578.089 886.658L602.271 901.227L623.109 912.044L642.184 920.435L663.614 929.198C664.566 929.587 665.548 929.903 666.549 930.141L691.951 936.192L706.843 938.551C709.909 939.036 713.068 938.795 716.028 937.858C718.988 936.921 721.711 935.301 723.939 933.139L725.264 931.853C727.178 929.997 728.701 927.777 729.744 925.324L730.485 923.581C731.215 921.863 731.702 920.052 731.93 918.2L732.841 910.81L733.801 900.223L734.815 884.167C734.929 882.357 735.289 880.571 735.885 878.857L737.528 874.132C738.869 870.275 741.359 866.921 744.663 864.521L753.461 858.128C756.553 855.882 760.223 854.569 764.037 854.343L770.095 853.985C772.028 853.871 773.968 854.039 775.854 854.482L791.646 858.197L807.194 861.733L812.942 862.3C817.002 862.701 821.087 861.85 824.65 859.862L826.652 858.745C828.975 857.449 831.017 855.702 832.657 853.608L833.861 852.069C835.859 849.516 837.207 846.516 837.789 843.328L839.631 833.222L840.968 804.439L839.474 777.714L835.116 741.943L825.32 702.09L810.521 661.359C810.084 660.156 809.533 658.998 808.874 657.9L784.445 617.174C783.834 616.157 783.135 615.196 782.355 614.303L751.612 579.115C750.871 578.266 750.058 577.482 749.184 576.769L710.792 545.487C709.998 544.84 709.155 544.255 708.271 543.737L673.482 523.35C672.449 522.745 671.365 522.234 670.241 521.823L643.869 512.175C639.688 510.646 635.116 510.555 630.877 511.918L614.449 517.199C608.259 519.189 604.287 525.217 604.902 531.69C605.005 532.777 604.979 533.873 604.825 534.954L602.185 553.456C601.937 555.198 601.46 556.899 600.766 558.515L592.002 578.948C591.355 580.456 590.525 581.879 589.531 583.184ZM483.023 620.292L488.963 622.372C490.512 622.914 492.121 623.264 493.756 623.413L515.897 625.434C517.648 625.594 519.414 625.522 521.147 625.22L539.559 622.013C540.635 621.826 541.685 621.512 542.687 621.078C548.653 618.493 555.614 620.408 559.419 625.68L569.518 639.672C572.124 643.282 573.451 647.658 573.288 652.108L572.262 680.17C572.219 681.365 572.068 682.555 571.811 683.724L563.173 723.11C562.953 724.111 562.657 725.094 562.287 726.049L544.4 772.229C543.993 773.28 543.497 774.295 542.919 775.263L518.953 815.375C518.345 816.393 517.647 817.355 516.869 818.249L485.685 854.068C484.845 855.034 483.914 855.916 482.905 856.703L448.74 883.365L413.865 904.996L381.191 920.194L356.236 929.874L328.448 937.497L318.268 938.868C315.056 939.3 311.786 938.945 308.741 937.834L306.905 937.164C304.406 936.251 302.114 934.85 300.164 933.041L298.482 931.481C295.491 928.707 293.42 925.085 292.546 921.1L291.309 915.458L289.868 899.578L288.521 883.411C288.36 881.481 287.919 879.584 287.213 877.781L285.001 872.13C283.608 868.572 281.225 865.487 278.133 863.241L269.335 856.849C266.031 854.448 262.072 853.117 257.989 853.033L252.987 852.93C251.174 852.893 249.364 853.103 247.607 853.554L232.023 857.552L221.658 859.909L214.348 861.327C212.516 861.682 210.643 861.779 208.784 861.616L206.897 861.449C204.242 861.215 201.66 860.453 199.303 859.207L197.671 858.344C194.926 856.892 192.544 854.804 190.738 852.278C188.933 849.752 187.727 846.823 187.241 843.756L184.882 828.864L182.788 802.836C182.705 801.81 182.702 800.779 182.778 799.753L184.49 776.664L186.575 755.93L190.424 732.769L196.807 705.269L208.335 674.09L213.513 663.471C217.028 656.261 225.394 652.837 232.956 655.514L265.089 664.027L299.279 669.709L331.409 671.421L362.692 670.046L387.856 667.034C389.574 666.829 391.259 666.401 392.867 665.761L415.401 656.803C416.72 656.279 417.979 655.616 419.157 654.825L443.918 638.209L461.924 625.335L462.743 624.568C468.18 619.478 475.994 617.83 483.023 620.292ZM420.637 538.397L420.78 532.105C420.949 524.66 416.967 517.737 410.446 514.14L409.464 513.598L391.655 500.451L368.201 482.037C367.085 481.16 366.065 480.168 365.159 479.076L349.676 460.413C348.571 459.081 347.643 457.611 346.916 456.04L336.276 433.038L325.301 403.712L317.001 372.625L311.839 338.353L310.006 305.162C310.215 297.143 304.374 290.244 296.43 289.129L284.731 287.486L251.516 286.157L223.389 288.584L200.173 292.081L179.809 296.505L157.321 302.012C156.322 302.256 155.342 302.578 154.392 302.974L130.285 313.009L116.851 319.854C114.084 321.264 111.671 323.316 109.827 325.814C107.983 328.312 106.733 331.223 106.2 334.282L105.884 336.101C105.427 338.727 105.5 341.418 106.098 344.016L106.523 345.862C106.941 347.681 107.612 349.431 108.516 351.064L112.123 357.578L117.569 366.708L126.187 380.293C127.158 381.825 127.917 383.481 128.442 385.218L129.89 390.007C131.072 393.915 131.029 398.092 129.767 401.976L126.407 412.319C125.226 415.953 123.029 419.173 120.075 421.598L115.385 425.448C113.888 426.677 112.22 427.681 110.434 428.431L95.4741 434.708L80.8167 440.986L75.8334 443.906C72.3136 445.968 69.5086 449.058 67.7947 452.76L66.8312 454.841C65.7135 457.255 65.0887 459.868 64.9933 462.526L64.9233 464.479C64.807 467.719 65.4799 470.938 66.884 473.859L71.3332 483.118L87.1697 507.19L104.088 527.933L128.638 554.31L159.989 580.794L195.902 605.048C196.963 605.764 198.09 606.377 199.267 606.878L242.97 625.467C244.061 625.931 245.192 626.297 246.348 626.561L291.902 636.958C293.001 637.209 294.119 637.367 295.245 637.429L344.692 640.171C345.715 640.228 346.741 640.206 347.761 640.105L387.889 636.15C389.08 636.032 390.258 635.808 391.409 635.48L418.414 627.784C422.696 626.564 426.448 623.95 429.077 620.356L439.263 606.427C443.101 601.179 442.771 593.967 438.469 589.092C437.747 588.273 437.124 587.372 436.613 586.406L427.873 569.886C427.051 568.331 426.437 566.675 426.047 564.959L421.128 543.277C420.765 541.677 420.6 540.038 420.637 538.397ZM512 594C545.137 594 572 567.137 572 534C572 500.863 545.137 474 512 474C478.863 474 452 500.863 452 534C452 567.137 478.863 594 512 594Z" fill="#D9D9D9"/>
</mask>
<g mask="url(#mask0_1_196)">
<rect x="-85" y="-47" width="1255" height="1208" fill="url(#paint0_angular_1_196)"/>
</g>
<defs>
<radialGradient id="paint0_angular_1_196" cx="0" cy="0" r="1" gradientUnits="userSpaceOnUse" gradientTransform="translate(1030 -175) rotate(85.799) scale(1911.13 1985.49)">
<stop offset="0.131045" stop-color="#FFA6A6"/>
<stop offset="0.996477" stop-color="#FF2E74"/>
</radialGradient>
</defs>
</svg>
