<svg width="5120" height="2560" viewBox="0 0 5120 2560" fill="none"
    xmlns="http://www.w3.org/2000/svg">
    <rect width="5120" height="2560" fill="white"/>
    <mask id="mask0_80417_94" style="mask-type:alpha" maskUnits="userSpaceOnUse" x="397" y="852" width="897" height="856">
        <path fill-rule="evenodd" clip-rule="evenodd" d="M817.395 1212.98L811.366 1214.79C809.795 1215.26 808.287 1215.92 806.877 1216.76L787.777 1228.14C786.265 1229.04 784.879 1230.14 783.655 1231.4L770.644 1244.82C769.884 1245.6 769.219 1246.47 768.664 1247.42C765.356 1253.01 758.599 1255.55 752.422 1253.53L736.027 1248.14C731.797 1246.75 728.151 1243.99 725.667 1240.3L710.003 1216.99C709.336 1216 708.759 1214.95 708.279 1213.85L692.117 1176.91C691.706 1175.97 691.368 1175 691.106 1174.01L678.433 1126.14C678.145 1125.05 677.949 1123.94 677.848 1122.81L673.66 1076.28C673.553 1075.09 673.552 1073.91 673.656 1072.72L677.831 1025.42C677.943 1024.14 678.178 1022.88 678.531 1021.65L690.5 980L706 942L723.5 910.5L738 888L756 865.5L763.43 858.407C765.775 856.169 768.628 854.535 771.745 853.644L773.624 853.107C776.182 852.376 778.86 852.163 781.502 852.48L783.779 852.753C787.829 853.239 791.634 854.952 794.683 857.663L799 861.5L809.5 873.5L820.093 885.788C821.357 887.255 822.828 888.53 824.46 889.574L829.571 892.845C832.789 894.905 836.531 896 840.352 896H851.228C855.311 896 859.297 894.75 862.649 892.418L866.756 889.561C868.245 888.525 869.586 887.291 870.743 885.894L881 873.5L888 865.5L893.081 860.056C894.354 858.692 895.812 857.513 897.412 856.553L899.037 855.578C901.322 854.206 903.859 853.306 906.498 852.929L908.326 852.668C911.4 852.228 914.554 852.518 917.5 853.5C920.445 854.482 923.143 856.143 925.338 858.338L936 869L952.994 888.826C953.663 889.607 954.272 890.439 954.814 891.315L967 911L977.5 929L988 950L999 976L1008 1008L1010.05 1019.63C1011.45 1027.53 1006.69 1035.22 999 1037.5L968 1049.5L937 1065L910 1082.5L885.5 1102L866.912 1119.23C865.643 1120.4 864.531 1121.74 863.606 1123.2L850.641 1143.7C849.882 1144.9 849.253 1146.17 848.765 1147.5L838.5 1175.5L831.5 1196.5L831.288 1197.6C829.881 1204.92 824.528 1210.84 817.395 1212.98ZM920.33 1247.4L916.747 1242.23C915.813 1240.88 914.716 1239.65 913.482 1238.57L896.758 1223.92C895.434 1222.76 893.964 1221.78 892.384 1221.01L875.603 1212.78C874.623 1212.3 873.589 1211.93 872.523 1211.7C866.177 1210.28 861.671 1204.64 861.692 1198.14L861.745 1180.88C861.759 1176.43 863.258 1172.11 866.005 1168.6L883.329 1146.51C884.068 1145.56 884.889 1144.69 885.783 1143.9L915.923 1117.11C916.689 1116.43 917.506 1115.81 918.367 1115.25L959.982 1088.41C960.929 1087.79 961.927 1087.26 962.963 1086.82L1005.93 1068.46C1007.02 1067.99 1008.15 1067.62 1009.3 1067.36L1055.59 1056.71C1056.83 1056.42 1058.11 1056.25 1059.39 1056.21L1102.7 1054.72L1143.63 1057.72L1178.99 1064.63L1204.87 1071.47L1231.83 1081.63L1240.87 1086.51C1243.73 1088.05 1246.16 1090.26 1247.97 1092.94L1249.06 1094.57C1250.55 1096.77 1251.58 1099.25 1252.1 1101.86L1252.54 1104.11C1253.33 1108.12 1252.88 1112.26 1251.24 1116L1248.92 1121.29L1240.76 1134.99L1232.34 1148.86C1231.34 1150.52 1230.58 1152.31 1230.09 1154.18L1228.56 1160.05C1227.6 1163.75 1227.71 1167.65 1228.89 1171.28L1232.25 1181.63C1233.51 1185.51 1235.93 1188.91 1239.19 1191.38L1243.17 1194.4C1244.62 1195.5 1246.21 1196.39 1247.89 1197.06L1262.85 1202.99L1272.62 1207.17L1279.37 1210.32C1281.06 1211.11 1282.63 1212.13 1284.04 1213.36L1285.47 1214.6C1287.48 1216.35 1289.12 1218.49 1290.29 1220.88L1291.11 1222.54C1292.48 1225.33 1293.17 1228.42 1293.15 1231.52C1293.13 1234.63 1292.38 1237.7 1290.97 1240.47L1284.13 1253.91L1270.52 1276.19C1269.99 1277.07 1269.38 1277.91 1268.72 1278.69L1253.76 1296.37L1239.89 1311.92L1223.16 1328.39L1201.83 1346.89L1174.18 1365.33L1163.75 1370.88C1156.67 1374.65 1147.89 1372.5 1143.34 1365.89L1122.35 1340.12L1098.03 1315.42L1073.04 1295.15L1046.93 1277.88L1024.8 1265.52C1023.29 1264.68 1021.67 1264.04 1019.99 1263.61L996.498 1257.61C995.123 1257.26 993.715 1257.06 992.297 1257L962.499 1255.89L940.364 1255.72L939.25 1255.86C931.86 1256.78 924.57 1253.52 920.33 1247.4ZM922.531 1351.18L918.717 1356.19C914.203 1362.11 913.356 1370.06 916.517 1376.8L916.993 1377.82L923.673 1398.92L931.824 1427.6C932.212 1428.97 932.454 1430.37 932.545 1431.79L934.101 1455.99C934.212 1457.71 934.099 1459.45 933.763 1461.14L928.852 1486.01L920.493 1516.18L908.935 1546.21L892.967 1576.97L874.94 1604.9C870.058 1611.27 870.729 1620.28 876.5 1625.85L884.999 1634.06L911.089 1654.66L935.271 1669.23L956.109 1680.04L975.184 1688.43L996.613 1697.2C997.566 1697.59 998.547 1697.9 999.549 1698.14L1024.95 1704.19L1039.84 1706.55C1042.91 1707.04 1046.07 1706.79 1049.03 1705.86C1051.99 1704.92 1054.71 1703.3 1056.94 1701.14L1058.26 1699.85C1060.18 1698 1061.7 1695.78 1062.74 1693.32L1063.48 1691.58C1064.22 1689.86 1064.7 1688.05 1064.93 1686.2L1065.84 1678.81L1066.8 1668.22L1067.81 1652.17C1067.93 1650.36 1068.29 1648.57 1068.88 1646.86L1070.53 1642.13C1071.87 1638.27 1074.36 1634.92 1077.66 1632.52L1086.46 1626.13C1089.55 1623.88 1093.22 1622.57 1097.04 1622.34L1103.09 1621.99C1105.03 1621.87 1106.97 1622.04 1108.85 1622.48L1124.65 1626.2L1140.19 1629.73L1145.94 1630.3C1150 1630.7 1154.09 1629.85 1157.65 1627.86L1159.65 1626.75C1161.98 1625.45 1164.02 1623.7 1165.66 1621.61L1166.86 1620.07C1168.86 1617.52 1170.21 1614.52 1170.79 1611.33L1172.63 1601.22L1173.97 1572.44L1172.47 1545.71L1168.12 1509.94L1158.32 1470.09L1143.52 1429.36C1143.08 1428.16 1142.53 1427 1141.87 1425.9L1117.44 1385.17C1116.83 1384.16 1116.13 1383.2 1115.35 1382.3L1084.61 1347.12C1083.87 1346.27 1083.06 1345.48 1082.18 1344.77L1043.79 1313.49C1043 1312.84 1042.15 1312.25 1041.27 1311.74L1006.48 1291.35C1005.45 1290.74 1004.36 1290.23 1003.24 1289.82L976.869 1280.18C972.688 1278.65 968.116 1278.55 963.877 1279.92L947.449 1285.2C941.259 1287.19 937.287 1293.22 937.901 1299.69C938.005 1300.78 937.979 1301.87 937.824 1302.95L935.185 1321.46C934.937 1323.2 934.46 1324.9 933.766 1326.52L925.002 1346.95C924.355 1348.46 923.525 1349.88 922.531 1351.18ZM816.023 1388.29L821.963 1390.37C823.512 1390.91 825.121 1391.26 826.755 1391.41L848.896 1393.43C850.648 1393.59 852.414 1393.52 854.147 1393.22L872.559 1390.01C873.635 1389.83 874.685 1389.51 875.687 1389.08C881.653 1386.49 888.613 1388.41 892.419 1393.68L902.518 1407.67C905.124 1411.28 906.451 1415.66 906.288 1420.11L905.262 1448.17C905.218 1449.37 905.068 1450.55 904.811 1451.72L896.173 1491.11C895.953 1492.11 895.657 1493.09 895.287 1494.05L877.399 1540.23C876.992 1541.28 876.497 1542.3 875.919 1543.26L851.953 1583.37C851.345 1584.39 850.647 1585.35 849.869 1586.25L818.685 1622.07C817.844 1623.03 816.913 1623.92 815.904 1624.7L781.74 1651.36L746.864 1673L714.191 1688.19L689.235 1697.87L661.448 1705.5L651.268 1706.87C648.055 1707.3 644.786 1706.95 641.741 1705.83L639.905 1705.16C637.406 1704.25 635.114 1702.85 633.164 1701.04L631.482 1699.48C628.491 1696.71 626.42 1693.08 625.546 1689.1L624.309 1683.46L622.868 1667.58L621.52 1651.41C621.36 1649.48 620.919 1647.58 620.213 1645.78L618.001 1640.13C616.608 1636.57 614.225 1633.49 611.133 1631.24L602.334 1624.85C599.031 1622.45 595.072 1621.12 590.989 1621.03L585.987 1620.93C584.173 1620.89 582.363 1621.1 580.606 1621.55L565.023 1625.55L554.658 1627.91L547.347 1629.33C545.516 1629.68 543.643 1629.78 541.784 1629.62L539.897 1629.45C537.241 1629.22 534.66 1628.45 532.303 1627.21L530.671 1626.34C527.926 1624.89 525.544 1622.8 523.738 1620.28C521.932 1617.75 520.726 1614.82 520.241 1611.76L517.882 1596.86L515.787 1570.84C515.705 1569.81 515.701 1568.78 515.778 1567.75L517.489 1544.66L519.575 1523.93L523.424 1500.77L529.807 1473.27L541.335 1442.09L546.512 1431.47C550.028 1424.26 558.394 1420.84 565.956 1423.51L598.089 1432.03L632.279 1437.71L664.409 1439.42L695.691 1438.05L720.855 1435.03C722.574 1434.83 724.259 1434.4 725.867 1433.76L748.401 1424.8C749.72 1424.28 750.979 1423.62 752.157 1422.82L776.917 1406.21L794.924 1393.33L795.743 1392.57C801.18 1387.48 808.994 1385.83 816.023 1388.29ZM753.637 1306.4L753.78 1300.11C753.949 1292.66 749.967 1285.74 743.446 1282.14L742.464 1281.6L724.654 1268.45L701.201 1250.04C700.085 1249.16 699.065 1248.17 698.159 1247.08L682.676 1228.41C681.57 1227.08 680.643 1225.61 679.916 1224.04L669.276 1201.04L658.301 1171.71L650.001 1140.63L644.839 1106.35L643.006 1073.16C643.215 1065.14 637.374 1058.24 629.43 1057.13L617.731 1055.49L584.516 1054.16L556.389 1056.58L533.172 1060.08L512.809 1064.5L490.321 1070.01C489.321 1070.26 488.342 1070.58 487.392 1070.97L463.285 1081.01L449.85 1087.85C447.084 1089.26 444.671 1091.32 442.827 1093.81C440.983 1096.31 439.732 1099.22 439.2 1102.28L438.884 1104.1C438.427 1106.73 438.499 1109.42 439.097 1112.02L439.522 1113.86C439.941 1115.68 440.612 1117.43 441.516 1119.06L445.123 1125.58L450.569 1134.71L459.186 1148.29C460.158 1149.82 460.917 1151.48 461.442 1153.22L462.89 1158.01C464.072 1161.92 464.029 1166.09 462.767 1169.98L459.406 1180.32C458.226 1183.95 456.028 1187.17 453.075 1189.6L448.384 1193.45C446.887 1194.68 445.22 1195.68 443.434 1196.43L428.474 1202.71L413.816 1208.99L408.833 1211.91C405.313 1213.97 402.508 1217.06 400.794 1220.76L399.831 1222.84C398.713 1225.25 398.088 1227.87 397.993 1230.53L397.923 1232.48C397.807 1235.72 398.48 1238.94 399.884 1241.86L404.333 1251.12L420.169 1275.19L437.087 1295.93L461.638 1322.31L492.988 1348.79L528.902 1373.05C529.963 1373.76 531.089 1374.38 532.267 1374.88L575.97 1393.47C577.061 1393.93 578.191 1394.3 579.348 1394.56L624.902 1404.96C626.001 1405.21 627.119 1405.37 628.245 1405.43L677.692 1408.17C678.715 1408.23 679.741 1408.21 680.761 1408.11L720.889 1404.15C722.08 1404.03 723.258 1403.81 724.409 1403.48L751.414 1395.78C755.696 1394.56 759.448 1391.95 762.076 1388.36L772.263 1374.43C776.101 1369.18 775.771 1361.97 771.469 1357.09C770.747 1356.27 770.124 1355.37 769.613 1354.41L760.873 1337.89C760.05 1336.33 759.436 1334.67 759.047 1332.96L754.127 1311.28C753.764 1309.68 753.6 1308.04 753.637 1306.4ZM845 1362C878.137 1362 905 1335.14 905 1302C905 1268.86 878.137 1242 845 1242C811.863 1242 785 1268.86 785 1302C785 1335.14 811.863 1362 845 1362Z" fill="#D9D9D9"/>
    </mask>
    <g mask="url(#mask0_80417_94)">
        <rect x="248" y="721" width="1255" height="1208" fill="url(#paint0_angular_80417_94)"/>
    </g>
    <path d="M1781.14 1607.25C1745.94 1607.25 1712.39 1601.75 1680.49 1590.75C1648.59 1579.75 1620.82 1564.35 1597.17 1544.55C1573.52 1524.75 1556.19 1501.92 1545.19 1476.07C1539.69 1464.52 1539.69 1453.8 1545.19 1443.9C1551.24 1434 1561.14 1427.67 1574.89 1424.92C1584.79 1422.72 1594.42 1424.37 1603.77 1429.87C1613.67 1434.82 1621.09 1442.52 1626.04 1452.97C1632.64 1466.72 1643.37 1479.37 1658.22 1490.92C1673.62 1502.47 1692.04 1511.82 1713.49 1518.97C1734.94 1526.12 1757.49 1529.7 1781.14 1529.7C1807.54 1529.7 1831.74 1525.57 1853.74 1517.32C1876.29 1509.07 1894.44 1497.25 1908.19 1481.85C1921.94 1465.9 1928.82 1446.37 1928.82 1423.27C1928.82 1394.12 1917.27 1368 1894.17 1344.9C1871.62 1321.8 1834.22 1307.5 1781.97 1302C1713.77 1295.4 1660.14 1275.32 1621.09 1241.77C1582.04 1208.22 1562.52 1166.7 1562.52 1117.2C1562.52 1080.9 1572.69 1050.1 1593.04 1024.8C1613.39 999.5 1640.89 980.25 1675.54 967.05C1710.74 953.85 1749.79 947.25 1792.69 947.25C1826.24 947.25 1855.39 951.925 1880.14 961.275C1905.44 970.625 1927.44 983.55 1946.14 1000.05C1964.84 1016.55 1981.07 1036.07 1994.82 1058.62C2002.52 1070.72 2005.54 1082.27 2003.89 1093.27C2002.79 1103.72 1997.57 1111.97 1988.22 1118.02C1977.77 1124.62 1966.49 1126 1954.39 1122.15C1942.29 1118.3 1933.22 1111.15 1927.17 1100.7C1918.37 1084.75 1907.64 1071.27 1894.99 1060.27C1882.34 1049.27 1867.49 1040.75 1850.44 1034.7C1833.39 1028.1 1813.32 1024.8 1790.22 1024.8C1749.52 1024.25 1715.42 1031.95 1687.92 1047.9C1660.42 1063.3 1646.67 1087.22 1646.67 1119.67C1646.67 1136.17 1650.79 1152.12 1659.04 1167.52C1667.84 1182.37 1683.52 1195.3 1706.07 1206.3C1729.17 1217.3 1762.17 1225 1805.07 1229.4C1870.52 1236 1921.39 1256.07 1957.69 1289.62C1994.54 1322.62 2012.97 1366.35 2012.97 1420.8C2012.97 1452.15 2006.37 1479.37 1993.17 1502.47C1980.52 1525.57 1963.19 1545.1 1941.19 1561.05C1919.74 1576.45 1894.99 1588 1866.94 1595.7C1839.44 1603.4 1810.84 1607.25 1781.14 1607.25ZM2365.64 1602.3C2325.49 1602.3 2289.46 1592.4 2257.56 1572.6C2225.66 1552.25 2200.36 1525.02 2181.66 1490.92C2163.51 1456.27 2154.44 1417.22 2154.44 1373.77C2154.44 1330.32 2164.34 1291.27 2184.14 1256.62C2204.49 1221.97 2231.71 1194.75 2265.81 1174.95C2300.46 1154.6 2339.24 1144.43 2382.14 1144.43C2425.04 1144.43 2463.54 1154.6 2497.64 1174.95C2531.74 1194.75 2558.69 1221.97 2578.49 1256.62C2598.84 1291.27 2609.01 1330.32 2609.01 1373.77H2576.84C2576.84 1417.22 2567.49 1456.27 2548.79 1490.92C2530.64 1525.02 2505.61 1552.25 2473.71 1572.6C2441.81 1592.4 2405.79 1602.3 2365.64 1602.3ZM2382.14 1528.05C2410.19 1528.05 2435.21 1521.45 2457.21 1508.25C2479.21 1494.5 2496.54 1476.07 2509.19 1452.97C2521.84 1429.32 2528.16 1402.92 2528.16 1373.77C2528.16 1344.07 2521.84 1317.67 2509.19 1294.57C2496.54 1270.92 2479.21 1252.5 2457.21 1239.3C2435.21 1225.55 2410.19 1218.67 2382.14 1218.67C2354.64 1218.67 2329.61 1225.55 2307.06 1239.3C2285.06 1252.5 2267.46 1270.92 2254.26 1294.57C2241.61 1317.67 2235.29 1344.07 2235.29 1373.77C2235.29 1402.92 2241.61 1429.32 2254.26 1452.97C2267.46 1476.07 2285.06 1494.5 2307.06 1508.25C2329.61 1521.45 2354.64 1528.05 2382.14 1528.05ZM2566.94 1599.83C2554.84 1599.83 2544.66 1595.97 2536.41 1588.27C2528.71 1580.02 2524.86 1569.85 2524.86 1557.75V1431.52L2540.54 1344.07L2609.01 1373.77V1557.75C2609.01 1569.85 2604.89 1580.02 2596.64 1588.27C2588.94 1595.97 2579.04 1599.83 2566.94 1599.83ZM2854.7 1434L2803.55 1377.9L3056.82 1151.85C3065.07 1144.15 3074.15 1140.57 3084.05 1141.12C3094.5 1141.67 3103.3 1146.07 3110.45 1154.32C3118.15 1162.57 3121.72 1171.65 3121.17 1181.55C3120.62 1191.45 3116.22 1200.25 3107.97 1207.95L2854.7 1434ZM2815.92 1599C2803.82 1599 2793.92 1595.42 2786.22 1588.27C2779.07 1580.57 2775.5 1570.67 2775.5 1558.57V995.1C2775.5 983 2779.07 973.375 2786.22 966.225C2793.92 958.525 2803.82 954.675 2815.92 954.675C2828.02 954.675 2837.65 958.525 2844.8 966.225C2852.5 973.375 2856.35 983 2856.35 995.1V1558.57C2856.35 1570.67 2852.5 1580.57 2844.8 1588.27C2837.65 1595.42 2828.02 1599 2815.92 1599ZM3110.45 1594.87C3101.65 1602.03 3091.75 1605.05 3080.75 1603.95C3070.3 1603.4 3061.5 1598.72 3054.35 1589.92L2886.87 1382.85L2944.62 1328.4L3116.22 1539.6C3123.37 1548.4 3126.4 1558.02 3125.3 1568.47C3124.75 1578.37 3119.8 1587.17 3110.45 1594.87ZM3476.2 1603.13C3438.25 1603.13 3404.15 1595.15 3373.9 1579.2C3344.2 1562.7 3320.55 1538.77 3302.95 1507.42C3285.9 1476.07 3277.38 1437.57 3277.38 1391.92V1188.97C3277.38 1176.87 3281.23 1166.97 3288.93 1159.27C3297.18 1151.02 3307.35 1146.9 3319.45 1146.9C3331.55 1146.9 3341.45 1151.02 3349.15 1159.27C3357.4 1166.97 3361.53 1176.87 3361.53 1188.97V1391.92C3361.53 1422.72 3367.3 1448.3 3378.85 1468.65C3390.4 1488.45 3406.08 1503.3 3425.88 1513.2C3445.68 1522.55 3467.95 1527.22 3492.7 1527.22C3516.35 1527.22 3537.25 1522.55 3555.4 1513.2C3574.1 1503.85 3588.95 1491.2 3599.95 1475.25C3610.95 1459.3 3616.45 1441.42 3616.45 1421.62H3668.43C3668.43 1455.72 3659.9 1486.52 3642.85 1514.02C3626.35 1541.52 3603.53 1563.25 3574.38 1579.2C3545.78 1595.15 3513.05 1603.13 3476.2 1603.13ZM3658.53 1599C3646.43 1599 3636.25 1595.15 3628 1587.45C3620.3 1579.2 3616.45 1569.02 3616.45 1556.92V1188.97C3616.45 1176.32 3620.3 1166.15 3628 1158.45C3636.25 1150.75 3646.43 1146.9 3658.53 1146.9C3671.18 1146.9 3681.35 1150.75 3689.05 1158.45C3696.75 1166.15 3700.6 1176.32 3700.6 1188.97V1556.92C3700.6 1569.02 3696.75 1579.2 3689.05 1587.45C3681.35 1595.15 3671.18 1599 3658.53 1599ZM3930.48 1316.85C3930.48 1283.85 3938.46 1254.42 3954.41 1228.57C3970.91 1202.17 3992.91 1181.27 4020.41 1165.87C4047.91 1150.47 4078.16 1142.77 4111.16 1142.77C4144.16 1142.77 4168.63 1148.27 4184.58 1159.27C4201.08 1169.72 4207.41 1182.37 4203.56 1197.22C4201.91 1204.92 4198.61 1210.97 4193.66 1215.37C4189.26 1219.22 4184.03 1221.7 4177.98 1222.8C4171.93 1223.9 4165.33 1223.62 4158.18 1221.97C4122.98 1214.82 4091.36 1214.27 4063.31 1220.32C4035.26 1226.37 4012.98 1237.65 3996.48 1254.15C3980.53 1270.65 3972.56 1291.55 3972.56 1316.85H3930.48ZM3931.31 1599C3918.11 1599 3907.93 1595.7 3900.78 1589.1C3893.63 1581.95 3890.06 1571.5 3890.06 1557.75V1188.97C3890.06 1175.77 3893.63 1165.6 3900.78 1158.45C3907.93 1151.3 3918.11 1147.72 3931.31 1147.72C3945.06 1147.72 3955.23 1151.3 3961.83 1158.45C3968.98 1165.05 3972.56 1175.22 3972.56 1188.97V1557.75C3972.56 1570.95 3968.98 1581.12 3961.83 1588.27C3955.23 1595.42 3945.06 1599 3931.31 1599ZM4487.59 1602.3C4447.44 1602.3 4411.42 1592.4 4379.52 1572.6C4347.62 1552.25 4322.32 1525.02 4303.62 1490.92C4285.47 1456.27 4276.39 1417.22 4276.39 1373.77C4276.39 1330.32 4286.29 1291.27 4306.09 1256.62C4326.44 1221.97 4353.67 1194.75 4387.77 1174.95C4422.42 1154.6 4461.19 1144.43 4504.09 1144.43C4546.99 1144.43 4585.49 1154.6 4619.59 1174.95C4653.69 1194.75 4680.64 1221.97 4700.44 1256.62C4720.79 1291.27 4730.97 1330.32 4730.97 1373.77H4698.79C4698.79 1417.22 4689.44 1456.27 4670.74 1490.92C4652.59 1525.02 4627.57 1552.25 4595.67 1572.6C4563.77 1592.4 4527.74 1602.3 4487.59 1602.3ZM4504.09 1528.05C4532.14 1528.05 4557.17 1521.45 4579.17 1508.25C4601.17 1494.5 4618.49 1476.07 4631.14 1452.97C4643.79 1429.32 4650.12 1402.92 4650.12 1373.77C4650.12 1344.07 4643.79 1317.67 4631.14 1294.57C4618.49 1270.92 4601.17 1252.5 4579.17 1239.3C4557.17 1225.55 4532.14 1218.67 4504.09 1218.67C4476.59 1218.67 4451.57 1225.55 4429.02 1239.3C4407.02 1252.5 4389.42 1270.92 4376.22 1294.57C4363.57 1317.67 4357.24 1344.07 4357.24 1373.77C4357.24 1402.92 4363.57 1429.32 4376.22 1452.97C4389.42 1476.07 4407.02 1494.5 4429.02 1508.25C4451.57 1521.45 4476.59 1528.05 4504.09 1528.05ZM4688.89 1599.83C4676.79 1599.83 4666.62 1595.97 4658.37 1588.27C4650.67 1580.02 4646.82 1569.85 4646.82 1557.75V1431.52L4662.49 1344.07L4730.97 1373.77V1557.75C4730.97 1569.85 4726.84 1580.02 4718.59 1588.27C4710.89 1595.97 4700.99 1599.83 4688.89 1599.83Z" fill="black"/>
    <defs>
        <radialGradient id="paint0_angular_80417_94" cx="0" cy="0" r="1" gradientUnits="userSpaceOnUse" gradientTransform="translate(1363 593) rotate(85.799) scale(1911.13 1985.49)">
            <stop offset="0.131045" stop-color="#FFA6A6"/>
            <stop offset="0.996477" stop-color="#FF2E74"/>
        </radialGradient>
    </defs>
</svg>
